<?xml version="1.0" standalone="no"?><!DOCTYPE svg PUBLIC "-//W3C//DTD SVG 1.1//EN" "http://www.w3.org/Graphics/SVG/1.1/DTD/svg11.dtd"><svg t="1624697537698" class="icon" viewBox="0 0 1024 1024" version="1.1" xmlns="http://www.w3.org/2000/svg" p-id="9815" xmlns:xlink="http://www.w3.org/1999/xlink" width="300" height="300"><defs><style type="text/css"></style></defs><path d="M789.4 690.5c0-6.4-5.2-11.6-11.6-11.6H280.6c-6.4 0-11.6 5.2-11.6 11.6v236.3c0 6.4 5.2 11.6 11.6 11.6h497.2c6.4 0 11.6-5.2 11.6-11.6V690.5z" fill="#A4A9AD" p-id="9816"></path><path d="M322.3 678.9H736v237.7H322.3z" fill="" p-id="9817"></path><path d="M323.9 353.5c-31.9 0-60.9 12.1-82.8 32-11.6-4.8-24.4-7.5-37.7-7.5-50.6 0-92.4 38.2-98 87.4-0.4 3.7-1.2 11.2 9.4 11.2H437c6.4 0 9.8-8.2 9.4-12.2-6.1-62.3-58.6-110.9-122.5-110.9zM701.1 94.3c31.9 0 60.9 12.1 82.8 32 11.6-4.8 24.4-7.5 37.7-7.5 50.6 0 92.4 38.2 98 87.4 0.4 3.7 1.2 11.2-9.4 11.2H588c-6.4 0-9.8-8.2-9.4-12.2 6.2-62.3 58.7-110.9 122.5-110.9z" fill="#00B3E3" p-id="9818"></path><path d="M534.4 234.2c-8 0-14.5-6.5-14.5-14.5v-141c0-8 6.5-14.5 14.5-14.5s14.5 6.5 14.5 14.5v141c0 8-6.4 14.5-14.5 14.5z" fill="#A4A9AD" p-id="9819"></path><path d="M520 187.3h29v32.3h-29z" fill="" p-id="9820"></path><path d="M621.9 216.4c0-6.4-5.2-11.6-11.6-11.6H458.6c-6.4 0-11.6 5.2-11.6 11.6v33c0 6.4 5.2 11.6 11.6 11.6h151.7c6.4 0 11.6-5.2 11.6-11.6v-33z" fill="#333E48" p-id="9821"></path><path d="M447 236.7h174.9v24.2H447z" fill="" p-id="9822"></path><path d="M659.7 266.5c0-6.4-5.2-11.6-11.6-11.6H410.3c-6.4 0-11.6 5.2-11.6 11.6v252c0 6.4 5.2 11.6 11.6 11.6h237.8c6.4 0 11.6-5.2 11.6-11.6v-252z" fill="#A4A9AD" p-id="9823"></path><path d="M398.7 485.4h261v44.8h-261z" fill="" p-id="9824"></path><path d="M704.4 916.6V526.9c0-6.4-5.2-11.6-11.6-11.6H365.6c-6.4 0-11.6 5.2-11.6 11.6v389.7h350.4z" fill="#D1D3D3" p-id="9825"></path><path d="M462.5 772.9h133.4v143.7H462.5z" fill="#00B3E3" p-id="9826"></path><path d="M514.7 772.9h29v143.7h-29z" fill="" p-id="9827"></path><path d="M904.4 952.4c0 4.3-3.5 7.8-7.8 7.8H161.8c-4.3 0-7.8-3.5-7.8-7.8v-27.9c0-4.3 3.5-7.8 7.8-7.8h734.9c4.3 0 7.8 3.5 7.8 7.8l-0.1 27.9z" fill="#333E48" p-id="9828"></path><path d="M354 604.9h350.3v29H354zM354 701.5h350.3v29H354zM398.7 394.2h261v29h-261zM398.7 321.3h261v29h-261z" fill="" p-id="9829"></path><path d="M407.4 916.6v-42.7c0-5.3-4.4-9.7-9.7-9.7H219.9c-5.3 0-9.7 4.4-9.7 9.7v42.7h197.2z" fill="#D68231" p-id="9830"></path><path d="M380.3 864.3c0-39.5-32-71.5-71.5-71.5s-71.5 32-71.5 71.5h143z" fill="#218649" p-id="9831"></path><path d="M378.4 847.9H239.2c-1.2 5.3-1.9 10.7-1.9 16.4h143.1c-0.1-5.7-0.7-11.1-2-16.4z" fill="" p-id="9832"></path><path d="M651 916.6v-42.7c0-5.3 4.4-9.7 9.7-9.7h177.8c5.3 0 9.7 4.4 9.7 9.7v42.7H651z" fill="#D68231" p-id="9833"></path><path d="M678 864.3c0-39.5 32-71.5 71.5-71.5s71.5 32 71.5 71.5H678z" fill="#218649" p-id="9834"></path><path d="M679.9 847.9h139.2c1.2 5.3 1.9 10.7 1.9 16.4H678c0-5.7 0.7-11.1 1.9-16.4z" fill="" p-id="9835"></path></svg>