<?xml version="1.0" encoding="utf-8"?>
<!-- Generator: Adobe Illustrator 23.1.1, SVG Export Plug-In . SVG Version: 6.00 Build 0)  -->
<svg version="1.1" xmlns="http://www.w3.org/2000/svg" xmlns:xlink="http://www.w3.org/1999/xlink" x="0px" y="0px"
	 viewBox="0 0 320 568" style="enable-background:new 0 0 320 568;" xml:space="preserve">
<style type="text/css">
	.st0{fill:none;stroke:#000000;stroke-miterlimit:10;}
	.st1{display:none;}
</style>
<g id="_x36_94.MP4_xA0_图像_1_">
	<polyline class="st0" points="217,339.9 246.5,339.9 258,350.5 256.7,373.2 312.8,421.7 	"/>
	<polyline class="st0" points="217,345.2 239,345.2 253.6,360.7 	"/>
	<polyline class="st0" points="217,335.7 250,335.7 262.2,349.4 262.2,368.3 331,428.1 	"/>
	<polyline class="st0" points="215.2,330.4 250.3,330.4 267.1,347.2 267.1,365.4 334.5,423.3 	"/>
	<polyline class="st0" points="215.2,326.4 253.6,326.4 271.3,345.2 272.4,364.5 336.9,416.8 	"/>
	<polyline class="st0" points="216.1,321.5 255.1,321.5 274.9,342.6 276.1,360.7 338.1,412.4 	"/>
	<polyline class="st0" points="215.2,316.8 256.5,316.8 279.8,338.4 279.8,359.4 338.1,406.6 	"/>
	<polyline class="st0" points="215.2,312.6 259.6,312.6 285.3,338.8 285.3,355.9 338.1,400.9 	"/>
	<polyline class="st0" points="216.1,307.8 262.7,307.8 290,330.4 290,353 338.1,394 	"/>
	<polyline class="st0" points="207.7,347.9 207.7,381.9 220.8,397.5 220.8,402.6 	"/>
	<polyline class="st0" points="197.3,349 197.3,379.8 207.7,390.7 207.7,405.3 	"/>
	<polyline class="st0" points="192.2,381.9 202.5,391.3 202.5,412.4 213.2,412.1 	"/>
	<polyline class="st0" points="170.2,349 170.2,380.8 188.6,395.5 188.6,409.3 	"/>
	<polyline class="st0" points="97.5,349 97.5,373.6 89.5,380.8 	"/>
	<polyline class="st0" points="75.6,380.9 96.6,380.8 96.6,402.6 73.6,402.6 73.6,381.9 	"/>
	<polyline class="st0" points="102.2,347.9 102.2,380.8 96.6,388.5 	"/>
	<polyline class="st0" points="107.5,347.9 108.4,387.3 103.3,392.7 97.5,392.7 	"/>
	<polyline class="st0" points="111.7,347.9 111.7,392.7 105.7,398.4 97.1,398.4 	"/>
	<polyline class="st0" points="119.9,346.3 119.9,397.2 98.4,418.6 	"/>
	<polyline class="st0" points="125.3,345.2 125.3,397.9 103.4,420.6 95.1,420.6 	"/>
	<polyline class="st0" points="130.3,345.2 129.4,403.5 107.5,426.4 96.6,426.4 	"/>
	<line class="st0" x1="105.9" y1="431.2" x2="75.1" y2="431.2"/>
	<line class="st0" x1="138.3" y1="347.9" x2="138.3" y2="402.6"/>
	<polyline class="st0" points="143.9,346.3 143.9,406.6 121.4,431.2 	"/>
	<polyline class="st0" points="150.1,347.9 150.1,409.3 124.3,439 103,439 	"/>
	<polyline class="st0" points="155.2,347.9 155.2,402.6 160,410.6 160,440.3 168.7,440.3 	"/>
	<polyline class="st0" points="161.9,349 161.9,392.7 169.6,400.9 168.7,421.7 172.3,426.4 	"/>
	<polyline class="st0" points="165.4,347.9 165.4,382.9 172.9,389.6 173.3,404.2 179.4,409.3 	"/>
	<polyline class="st0" points="96.6,345.2 79.8,345.2 48.5,378.6 37,378.6 28.6,389.6 20.8,389.6 	"/>
	<polyline class="st0" points="95.1,339.9 76.7,339.9 46.5,371.6 29.5,371.6 	"/>
	<polyline class="st0" points="95.1,335.7 73.6,335.7 43.4,367 27.5,367 	"/>
	<polyline class="st0" points="96.6,329.5 89.5,329.5 86.7,332.7 71.4,332.7 43.1,361.3 27.5,361.3 	"/>
	<polyline class="st0" points="96.6,323.1 88.8,323.1 86.2,326.5 67.5,326.5 46.4,349 32.5,349 	"/>
	<polyline class="st0" points="99.4,318.4 88.7,318.4 85.1,323.1 58.7,322.4 39.3,343.7 29.5,343.7 	"/>
	<polyline class="st0" points="99.4,312.9 89.5,312.9 84.3,318.4 55.7,318.4 39.4,335.7 27.5,335.7 	"/>
	<polyline class="st0" points="96.6,308.1 87.2,308.1 83.2,312.9 63.4,312.9 	"/>
	<polyline class="st0" points="97.5,303.3 88.2,303.3 83.7,308.1 66,308.1 	"/>
	<polyline class="st0" points="97.5,298.1 85.1,298.1 80.8,303.3 69.7,303.3 	"/>
	<line class="st0" x1="95.1" y1="294.6" x2="80" y2="294.6"/>
	<polyline class="st0" points="95.1,289.6 76.5,289.6 35.8,332.2 8,332.2 	"/>
	<polyline class="st0" points="63.4,297.3 34.8,324.3 0.7,323.1 	"/>
	<polyline class="st0" points="95.8,284 66,284.8 32.5,318.4 5.2,318.4 	"/>
	<polyline class="st0" points="95.1,277.5 56.1,277.5 26.8,307.8 -9.6,307.8 	"/>
	<polyline class="st0" points="95.8,272.8 50.5,272.8 24.3,300.7 -1.3,300.7 	"/>
	<polyline class="st0" points="95.8,267.9 47.3,267.9 23.1,294 -1.3,294 	"/>
	<polyline class="st0" points="95.8,262.7 45.8,262.7 26.3,284 -8,284 	"/>
	<polyline class="st0" points="96.6,257.4 45.6,257.4 26.5,277.5 -7,276.8 	"/>
	<polyline class="st0" points="95.8,253.2 42.7,252.6 25.5,271.2 -3.6,271.2 	"/>
	<polyline class="st0" points="95.1,247.1 41.8,247.1 24.8,262.5 	"/>
	<path class="st0" d="M-20.4,270.3"/>
	<polyline class="st0" points="95.8,237.6 39.4,237.6 21.5,257.4 -13.1,257.4 	"/>
	<polyline class="st0" points="95.8,233.3 39.3,233.3 18.5,254.1 	"/>
	<path class="st0" d="M-11.4,254.1"/>
	<polyline class="st0" points="95.8,229.1 37.8,229.1 13.2,254.1 -11.4,254.1 	"/>
	<polyline class="st0" points="220.8,279.2 253.6,279.2 326.8,345.2 	"/>
	<polyline class="st0" points="218.1,274.9 256.3,274.9 324.5,341.2 	"/>
	<polyline class="st0" points="326.8,337.2 257.8,271.2 218.1,270.3 	"/>
	<polyline class="st0" points="218.1,266.5 259.4,266.5 331,334.8 	"/>
	<polyline class="st0" points="218.1,261.9 260.5,261.9 328.5,326.4 	"/>
	<polyline class="st0" points="218.1,257.4 263.8,257.4 331,323.1 	"/>
	<polyline class="st0" points="218.1,252.6 265.8,252.6 324.5,309.3 	"/>
	<polyline class="st0" points="216.1,243.7 263.1,243.7 272.4,254.1 331,254.1 	"/>
	<polyline class="st0" points="216.1,237.6 264.9,237.6 271.3,245.5 329.4,245.5 	"/>
	<polyline class="st0" points="217,232.4 268.7,232.4 276.1,240.4 326.8,239.3 	"/>
	<polyline class="st0" points="217,227.1 271.3,226.2 280.9,236.4 334.5,236.4 	"/>
	<polyline class="st0" points="207.7,224.4 207.7,200.5 229.4,179 258,179 	"/>
	<polyline class="st0" points="203.7,222.4 203.7,196.5 226.8,172.5 250.9,171.6 	"/>
	<polyline class="st0" points="174,222.4 174,194.5 179.4,188.7 	"/>
	<line class="st0" x1="170.2" y1="224.4" x2="170.2" y2="174.3"/>
	<polyline class="st0" points="166.6,222.4 166.6,193.6 141.9,167 128.1,167 119.9,160.8 	"/>
	<polyline class="st0" points="153.4,222.4 153.4,200.7 130.3,177.2 106.7,177.2 96.6,166.3 96.6,158.6 	"/>
	<polyline class="st0" points="133.4,192.9 125,184.5 101.3,184.5 89.5,173.4 89.5,158.6 	"/>
	<line class="st0" x1="123.9" y1="127.7" x2="123.9" y2="62.8"/>
	<line class="st0" x1="118.4" y1="127.7" x2="118.4" y2="65"/>
	<line class="st0" x1="112.2" y1="127.7" x2="111.5" y2="62.8"/>
	<line class="st0" x1="106.8" y1="127.7" x2="106.8" y2="65"/>
	<polyline class="st0" points="100.4,126.6 100.4,88.9 95.1,85 95.8,69.7 	"/>
	<polyline class="st0" points="95.1,126.6 95.1,90.5 86.7,83.8 86.7,69 	"/>
	<line class="st0" x1="197.9" y1="125.3" x2="197.9" y2="139.9"/>
	<polyline class="st0" points="193.3,139.9 193.3,130.6 190,126.6 191.6,116.4 	"/>
	<polyline class="st0" points="188.4,139.9 188.4,130.6 184.9,126.6 184.9,111.1 	"/>
	<polyline class="st0" points="184.9,139.9 184.9,131.1 179.4,126.6 179.4,107.3 	"/>
	<polyline class="st0" points="179.4,138.4 179.4,132.6 174,128.9 175.1,98.1 157.4,83.4 155.6,67 	"/>
	<polyline class="st0" points="212,141.9 212,96.4 235.7,69.7 262.1,69 	"/>
	<polyline class="st0" points="216.5,143.8 216.5,98.3 240.2,71.5 266.6,70.9 	"/>
	<polyline class="st0" points="220.8,146.6 220.8,101 244.5,74.3 270.9,73.6 	"/>
	<polyline class="st0" points="224.9,149.4 224.9,103.8 248.6,77.1 275,76.4 	"/>
	<polyline class="st0" points="229.3,151.9 229.3,106.3 253,79.6 279.4,79 	"/>
	<polygon class="st0" points="62,199.4 54.7,191.6 54.7,180.7 81.8,180.7 81.8,192.9 75.1,199.4 	"/>
	<polyline class="st0" points="229.3,363.6 247.9,363.6 247.9,385.8 229.3,385.8 229.3,367.4 	"/>
	<polyline class="st0" points="174,409.3 197.3,409.3 197.3,436.8 174,436.8 174,412.4 	"/>
	<rect x="215.2" y="406.6" class="st0" width="23.4" height="12"/>
	<rect x="215.2" y="422.2" class="st0" width="23.4" height="12"/>
	<rect x="215.2" y="437.7" class="st0" width="23.4" height="12"/>
	<rect x="24.8" y="180.2" class="st0" width="23.4" height="12"/>
	<rect x="24.8" y="195.7" class="st0" width="23.4" height="12"/>
	<rect x="24.8" y="211.2" class="st0" width="23.4" height="12"/>
	<rect x="76" y="134.8" class="st0" width="23.4" height="12"/>
	<rect x="106.7" y="134.8" class="st0" width="23.4" height="12"/>
	<rect x="229.8" y="190.5" class="st0" width="23.4" height="28.8"/>
	<circle class="st0" cx="190" cy="175.7" r="12.8"/>
	<circle class="st0" cx="264.9" cy="169.9" r="12.8"/>
	<circle class="st0" cx="262" cy="155.4" r="8.8"/>

</g>
<g id="深色_红色_纯色_1_xA0_图像_1_" class="st1">
	
		<image style="display:inline;overflow:visible;" width="248" height="128" id="深色_红色_纯色_1_xA0_图像" xlink:href="92F6C17E06C76EC2.png" >
	</image>
</g>
</svg>
