<?xml version="1.0" standalone="no"?><!DOCTYPE svg PUBLIC "-//W3C//DTD SVG 1.1//EN" "http://www.w3.org/Graphics/SVG/1.1/DTD/svg11.dtd">
<svg xmlns:xlink="http://www.w3.org/1999/xlink"
    class="icon"
    height="300"
    p-id="4135"
    t="1624324261136"
    version="1.1"
    viewBox="0 0 1024 1024"
    width="300"
    xmlns="http://www.w3.org/2000/svg">
    <defs>
        <style type="text/css"></style>
    </defs>
    <path
        d="M490.409984 657.48992c-152.948736 0-277.377024-124.43648-277.377024-277.377024s124.432384-277.377024 277.377024-277.377024 277.377024 124.43648 277.377024 277.377024-124.428288 277.377024-277.377024 277.377024z m0-527.355904c-137.838592 0-249.97888 112.136192-249.97888 249.97888s112.140288 249.97888 249.97888 249.97888 249.97888-112.136192 249.97888-249.97888-112.140288-249.97888-249.97888-249.97888z"
        fill="#429DD7"
        p-id="4136"></path>
    <path
        d="M408.682496 593.77664c-36.036608 0-71.20896-6.49216-104.554496-19.300352l6.545408-17.055744c31.248384 12.005376 64.221184 18.087936 98.009088 18.087936 150.740992 0 273.379328-122.63424 273.379328-273.375232 0-33.857536-6.111232-66.895872-18.16576-98.2016l17.043456-6.565888c12.865536 33.411072 19.386368 68.661248 19.386368 104.767488 0 160.813056-130.830336 291.643392-291.643392 291.643392z"
        fill="#429DD7"
        p-id="4137"></path>
    <path
        d="M295.952384 571.0848c-16.838656-37.576704-25.378816-77.66016-25.378816-119.164928 0-160.817152 130.830336-291.647488 291.643392-291.647488 46.915584 0 93.560832 11.415552 134.885376 33.001472l-8.454144 16.19968c-38.72768-20.238336-82.448384-30.932992-126.431232-30.932992-150.740992 0-273.379328 122.642432-273.379328 273.383424 0 38.907904 7.999488 76.484608 23.785472 111.689728l-16.67072 7.471104z"
        fill="#429DD7"
        p-id="4138"></path>
    <path
        d="M490.409984 748.130304c-129.753088 0-247.443456-66.297856-314.834944-177.3568l23.420928-14.217216c62.38208 102.797312 171.319296 164.171776 291.414016 164.171776 187.817984 0 340.619264-152.80128 340.619264-340.619264 0-114.331648-56.918016-220.44672-152.260608-283.844608l15.171584-22.81472c102.998016 68.493312 164.487168 183.136256 164.487168 306.659328 0.004096 202.928128-165.08928 368.021504-368.017408 368.021504z"
        fill="#429DD7"
        p-id="4139"></path>
    <path
        d="M757.260288 95.719424l19.451904 19.300352L216.2688 679.911424l-19.456-19.296256z"
        fill="#429DD7"
        p-id="4140"></path>
    <path
        d="M312.991744 184.864768l369.401856 376.25856-13.029376 12.791808-369.401856-376.25856zM531.47648 820.57216h-80.171008V719.6672h80.171008v100.90496z m-52.772864-27.398144h25.370624V747.06944h-25.370624v46.104576z"
        fill="#429DD7"
        p-id="4141"></path>
    <path
        d="M679.837696 951.066624H302.94016v-83.030016l4.120576-4.030464c46.034944-45.01504 113.217536-70.828032 184.324096-70.828032s138.293248 25.812992 184.328192 70.828032l4.120576 4.030464v83.030016z m-349.495296-27.40224h322.097152v-43.982848c-40.820736-37.629952-99.155968-59.109376-161.050624-59.109376-61.898752 0-120.229888 21.479424-161.046528 59.101184v43.99104z"
        fill="#ED743B"
        p-id="4142"></path>
    <path
        d="M316.64128 870.977536h344.240128v18.26816H316.64128z"
        fill="#ED743B"
        p-id="4143"></path>
</svg>