<?xml version="1.0" standalone="no"?><!DOCTYPE svg PUBLIC "-//W3C//DTD SVG 1.1//EN" "http://www.w3.org/Graphics/SVG/1.1/DTD/svg11.dtd"><svg t="1624697011828" class="icon" viewBox="0 0 1024 1024" version="1.1" xmlns="http://www.w3.org/2000/svg" p-id="3580" xmlns:xlink="http://www.w3.org/1999/xlink" width="300" height="300"><defs><style type="text/css"></style></defs><path d="M145.92 149.12h736v723.2h-736z" fill="#1297B5" p-id="3581"></path><path d="M563.2 569.6c-7.04 0-12.8-5.76-12.8-12.8V448c-3.84-6.4-9.6-13.44-16.64-13.44-8.96-0.64-19.2 10.24-21.12 13.44-4.48 5.76-12.16 7.04-17.92 2.56-5.76-4.48-7.04-12.16-2.56-17.92 1.92-2.56 19.2-24.96 43.52-23.68 15.36 0.64 28.16 10.88 39.04 29.44 1.28 1.92 1.92 3.84 1.92 6.4V556.8c-0.64 7.04-6.4 12.8-13.44 12.8z" fill="#29E0F6" p-id="3582"></path><path d="M532.48 631.04c-24.96 0-33.28-21.12-33.28-35.84V480c0-7.04 5.76-12.8 12.8-12.8s12.8 5.76 12.8 12.8v115.2c0 4.48 1.28 10.24 7.68 10.24 10.88 0 11.52-2.56 12.8-14.72v-0.64c0.64-7.04 7.04-12.16 14.08-10.88 7.04 0.64 12.16 7.04 10.88 14.08v0.64c-0.64 11.52-3.84 37.12-37.76 37.12zM485.76 675.2c-1.92 0-3.84-0.64-5.76-1.28-39.04-19.84-38.4-60.16-38.4-65.92V425.6c0-28.8 27.52-55.68 30.08-58.88 5.12-5.12 13.44-4.48 17.92 0.64 5.12 5.12 4.48 13.44-0.64 17.92-6.4 5.76-22.4 24.96-22.4 40.32v183.68c0 1.28-1.92 28.8 24.32 41.6 6.4 3.2 8.96 10.88 5.76 17.28-1.92 4.48-6.4 7.04-10.88 7.04zM591.36 402.56c-3.84 0-8.32-1.92-10.88-5.76-15.36-23.04-61.44-21.76-61.44-21.76-7.04 0.64-12.8-5.12-13.44-12.16 0-7.04 5.12-12.8 12.16-13.44 2.56 0 60.16-2.56 83.84 32.64 3.84 5.76 2.56 14.08-3.2 17.92-1.92 1.92-4.48 2.56-7.04 2.56zM608 576c-7.04 0-12.8-5.76-12.8-12.8V441.6c0-7.04 5.76-12.8 12.8-12.8s12.8 5.76 12.8 12.8v121.6c0 7.04-5.76 12.8-12.8 12.8z" fill="#29E0F6" p-id="3583"></path><path d="M531.84 689.92c-5.12 0-10.24-0.64-15.36-1.28-7.04-1.28-11.52-7.68-10.24-14.72 1.28-7.04 7.68-11.52 14.72-10.24 30.72 5.12 55.04-13.44 55.04-13.44 20.48-16 19.2-53.76 19.2-54.4 0-7.04 5.12-12.8 12.16-13.44 7.04 0 12.8 5.12 13.44 12.16 0 1.92 1.28 51.2-28.8 75.52-1.28 0.64-26.24 19.84-60.16 19.84zM396.8 408.96c-1.92 0-4.48-0.64-6.4-1.28-6.4-3.2-8.32-10.88-5.12-17.28 1.92-3.84 55.04-99.84 147.84-95.36 7.04 0.64 12.8 6.4 12.16 13.44-0.64 7.04-6.4 12.8-13.44 12.16-76.8-3.84-123.52 81.28-124.16 81.92-1.92 3.84-6.4 6.4-10.88 6.4zM664.32 460.16h-0.64c-7.04-0.64-12.16-6.4-12.16-13.44 5.76-93.44-76.8-117.12-80-117.76-7.04-1.92-10.88-8.96-8.96-16 1.92-7.04 8.96-10.88 16-8.96 1.28 0 106.24 30.72 99.2 144.64-1.28 6.4-7.04 11.52-13.44 11.52z" fill="#29E0F6" p-id="3584"></path><path d="M578.56 736.64c-5.12 0-10.24-3.2-12.16-8.32-2.56-6.4 0.64-14.08 7.68-16.64 74.88-27.52 78.72-101.12 78.72-104.32V480c0-7.04 5.76-12.8 12.8-12.8s12.8 5.76 12.8 12.8v128c0 4.48-4.48 94.08-95.36 128-1.92 0.64-3.2 0.64-4.48 0.64zM526.08 744.32c-21.76 0-71.68-5.12-108.8-48-4.48-4.48-40.32-44.16-33.92-110.08 0.64-7.04 7.04-12.16 14.08-11.52 7.04 0.64 12.16 7.04 11.52 14.08-5.76 56.32 26.24 89.6 26.88 89.6l0.64 0.64c38.4 44.16 96.64 39.04 96.64 39.04 7.04-0.64 13.44 4.48 14.08 11.52 0.64 7.04-4.48 13.44-11.52 14.08 0 0-3.2 0.64-9.6 0.64zM390.4 563.2c-7.04 0-12.8-5.76-12.8-12.8V435.2c0-7.04 5.76-12.8 12.8-12.8s12.8 5.76 12.8 12.8v115.2c0 7.04-5.76 12.8-12.8 12.8zM700.8 355.2c-3.84 0-8.32-1.92-10.88-5.76-54.4-80-124.8-86.4-128-87.04h-1.28c-79.36-13.44-136.96 36.48-137.6 37.12-5.12 4.48-13.44 4.48-17.92-1.28-4.48-5.12-4.48-13.44 1.28-17.92 2.56-2.56 67.2-58.88 158.08-43.52 8.96 0.64 87.04 10.88 146.56 97.92 3.84 5.76 2.56 14.08-3.2 17.92-1.92 1.92-4.48 2.56-7.04 2.56zM716.8 627.2c-7.04 0-12.8-5.76-12.8-12.8V403.2c0-7.04 5.76-12.8 12.8-12.8s12.8 5.76 12.8 12.8v211.2c0 7.04-5.76 12.8-12.8 12.8z" fill="#29E0F6" p-id="3585"></path><path d="M536.32 799.36c-40.32 0-92.16-9.6-140.8-48.64-5.76-4.48-6.4-12.16-1.92-17.92 4.48-5.76 12.16-6.4 17.92-1.92 84.48 67.84 183.68 35.2 184.96 34.56 78.08-28.16 104.32-116.48 104.32-117.12 1.92-7.04 8.96-10.88 16-8.96 7.04 1.92 10.88 8.96 8.96 16-1.28 3.84-30.08 101.12-120.96 134.4-2.56 0.64-30.08 9.6-68.48 9.6zM368.64 709.76c-4.48 0-8.32-1.92-10.88-5.76-1.28-1.92-31.36-49.28-31.36-89.6V422.4v-1.28c0-3.2 8.32-80.64 51.2-110.08 5.76-3.84 14.08-2.56 17.92 3.2 3.84 5.76 2.56 14.08-3.2 17.92-27.52 18.56-38.4 71.04-40.32 90.88V614.4c0 26.88 19.84 63.36 27.52 75.52 3.84 5.76 1.92 14.08-3.84 17.92-1.92 1.28-4.48 1.92-7.04 1.92zM883.2 217.6c-7.04 0-12.8-5.76-12.8-12.8v-44.8h-38.4c-7.04 0-12.8-5.76-12.8-12.8s5.76-12.8 12.8-12.8h51.2c7.04 0 12.8 5.76 12.8 12.8v57.6c0 7.04-5.76 12.8-12.8 12.8zM147.2 217.6c-7.04 0-12.8-5.76-12.8-12.8v-57.6c0-7.04 5.76-12.8 12.8-12.8h51.2c7.04 0 12.8 5.76 12.8 12.8s-5.76 12.8-12.8 12.8h-38.4v44.8c0 7.04-5.76 12.8-12.8 12.8zM883.2 883.2h-51.2c-7.04 0-12.8-5.76-12.8-12.8s5.76-12.8 12.8-12.8h38.4v-44.8c0-7.04 5.76-12.8 12.8-12.8s12.8 5.76 12.8 12.8v57.6c0 7.04-5.76 12.8-12.8 12.8zM198.4 883.2h-51.2c-7.04 0-12.8-5.76-12.8-12.8v-57.6c0-7.04 5.76-12.8 12.8-12.8s12.8 5.76 12.8 12.8v44.8h38.4c7.04 0 12.8 5.76 12.8 12.8s-5.76 12.8-12.8 12.8z" fill="#29E0F6" p-id="3586"></path><path d="M803.84 599.68H261.76c-13.44 0-24.32-10.88-24.32-24.32 0-13.44 10.88-24.32 24.32-24.32h542.72c13.44 0 24.32 10.88 24.32 24.32-0.64 13.44-11.52 24.32-24.96 24.32z" fill="#0EAFC9" p-id="3587"></path><path d="M803.84 612.48H261.76c-20.48 0-37.12-16.64-37.12-37.12s16.64-37.12 37.12-37.12h542.72c20.48 0 37.12 16.64 37.12 37.12s-17.28 37.12-37.76 37.12z m-542.08-48c-6.4 0-11.52 5.12-11.52 11.52s5.12 11.52 11.52 11.52h542.72c6.4 0 11.52-5.12 11.52-11.52s-5.12-11.52-11.52-11.52H261.76z" fill="#29E0F6" p-id="3588"></path></svg>