<?xml version="1.0" encoding="UTF-8"?>
<svg width="512px" height="923px" viewBox="0 0 512 923" version="1.1" xmlns="http://www.w3.org/2000/svg" xmlns:xlink="http://www.w3.org/1999/xlink">
    <title>人物组件/女/正面/跳跃</title>
    <defs>
        <polygon id="path-1" points="0.0002 0.229 30.3313772 0.229 30.3313772 56.4119792 0.0002 56.4119792"></polygon>
        <polygon id="path-3" points="0.867210499 0.229 31.1975 0.229 31.1975 56.4119792 0.867210499 56.4119792"></polygon>
    </defs>
    <g id="人物组件/女/正面/跳跃" stroke="none" stroke-width="1" fill="none" fill-rule="evenodd">
        <g id="编组" transform="translate(14.000000, 63.000000)">
            <path d="M181.7063,607.7822 C181.6193,607.3432 207.1213,715.2942 209.5983,722.8592 C216.3523,743.5052 219.6523,745.5622 210.4333,754.6532 C208.0703,756.9812 203.2923,756.7962 200.4713,763.2892 C192.7503,781.0652 177.4213,794.7202 172.5713,787.5562 C168.6843,780.6292 189.7893,747.5642 187.6473,731.3132 C185.4233,714.4342 133.3523,593.2252 141.3043,580.6362 C149.2573,568.0492 149.4463,522.2412 181.7063,607.7822" id="Fill-1" fill="#FFAE92"></path>
            <path d="M218.4094,754.9758 C218.4094,754.9758 218.7614,742.7548 211.9534,729.7858 C211.9534,729.7858 204.9994,741.1588 199.9494,753.1178 C194.1154,766.9248 192.0224,768.2178 192.0224,768.2178 C181.4454,775.7588 176.5674,769.8888 176.5674,769.8888 C176.5674,769.8888 172.8664,780.2678 163.6874,793.1558 C155.4684,804.6968 198.1364,792.4478 200.3974,779.9058 C202.6594,767.3668 208.2124,758.6468 208.2124,758.6468 L216.8234,773.6848 L220.8004,772.2488 L218.4094,754.9758 Z" id="Fill-3" fill="#87272C"></path>
            <path d="M297.8088,505.5073 C297.4208,505.7303 391.5968,447.1243 397.9768,442.3633 C415.3888,429.3753 416.2858,425.5913 427.8428,431.4303 C430.8028,432.9263 432.1518,437.5143 439.2048,438.1163 C458.5158,439.7633 476.3478,449.9353 471.1048,456.8173 C465.7798,462.7123 427.7088,453.2563 412.9908,460.4703 C397.7028,467.9633 299.4378,555.9793 284.9698,552.4583 C270.5028,548.9363 227.0288,563.3693 297.8088,505.5073" id="Fill-5" fill="#FFAE92"></path>
            <path d="M425.6037,423.7676 C425.6037,423.7676 413.9097,427.3326 403.7897,437.9226 C403.7897,437.9226 416.7877,440.8846 429.7317,441.8556 C444.6787,442.9796 446.5717,444.5516 446.5717,444.5516 C457.0927,452.1706 453.0857,458.6656 453.0857,458.6656 C453.0857,458.6656 464.1027,458.8626 479.2467,463.4506 C492.8057,467.5596 467.5847,431.0286 454.9777,432.8856 C442.3727,434.7416 432.3357,432.2616 432.3357,432.2616 L443.8407,419.3016 L441.2117,415.9916 L425.6037,423.7676 Z" id="Fill-7" fill="#87272C"></path>
            <path d="M227.6057,130.3328 C225.6477,111.0528 214.4267,95.6108 199.9907,91.9278 C199.9887,91.9268 199.9857,91.9268 199.9837,91.9248 C199.4817,91.7978 198.9767,91.6858 198.4677,91.5868 C198.4247,91.5778 198.3837,91.5678 198.3407,91.5598 C197.8747,91.4708 197.4037,91.3978 196.9297,91.3338 C196.8477,91.3228 196.7667,91.3068 196.6837,91.2958 C196.2357,91.2408 195.7847,91.2018 195.3327,91.1668 C195.2267,91.1598 195.1227,91.1448 195.0167,91.1388 C194.4617,91.1038 193.9037,91.0848 193.3427,91.0848 L193.3417,91.0848 C175.8327,91.0848 161.3717,108.1288 159.0887,130.2338 C159.0887,130.2338 152.5357,206.2318 135.9887,222.8098 L193.3487,222.8098 L193.3507,222.8098 L193.3527,222.8098 L250.7137,222.8098 C234.1677,206.2318 227.6057,130.3328 227.6057,130.3328" id="Fill-9" fill="#6B0003"></path>
            <path d="M208.3283,180.5537 L208.3283,157.4137 L180.6403,157.4137 L180.6403,180.5547 C180.6403,182.6087 179.0763,184.3247 177.0303,184.5127 C174.6883,184.7287 172.2873,184.9777 169.3293,185.2637 C170.0493,192.7537 181.0393,198.6837 194.4893,198.6837 C207.9393,198.6837 218.9303,192.7537 219.6493,185.2637 C216.6873,184.9777 214.2823,184.7277 211.9373,184.5117 C209.8913,184.3247 208.3283,182.6077 208.3283,180.5537" id="Fill-11" fill="#FFAE92"></path>
            <path d="M208.3283,157.4138 L180.6393,157.4138 L180.6393,168.0568 C184.4423,170.6558 188.7643,172.1328 193.3503,172.1328 C198.8763,172.1328 204.0163,169.9938 208.3283,166.3238 L208.3283,157.4138 Z" id="Fill-13" fill="#FF7D65"></path>
            <path d="M218.6926,133.1091 C218.6926,151.9711 207.3466,167.2621 193.3516,167.2621 C179.3556,167.2621 168.0096,151.9711 168.0096,133.1091 C168.0096,114.2471 179.3556,98.9561 193.3516,98.9561 C207.3466,98.9561 218.6926,114.2471 218.6926,133.1091" id="Fill-15" fill="#FFAE92"></path>
            <path d="M165.966,128.1338 C166.01,128.1348 197.49,129.3168 203.458,99.5618 C200.294,97.9008 196.843,96.9778 193.226,96.9778 C179.291,96.9778 167.782,110.5418 165.966,128.1338" id="Fill-17" fill="#6B0003"></path>
            <path d="M193.4191,96.978 L193.4191,96.978 C199.8681,125.38 220.5241,128.191 220.6871,128.212 C218.8971,110.582 207.3751,96.978 193.4191,96.978" id="Fill-19" fill="#6B0003"></path>
            <path d="M174.2531,134.4128 C174.2531,137.8178 171.4921,140.5778 168.0871,140.5778 C164.6831,140.5778 161.9221,137.8178 161.9221,134.4128 C161.9221,131.0078 164.6831,128.2478 168.0871,128.2478 C171.4921,128.2478 174.2531,131.0078 174.2531,134.4128" id="Fill-21" fill="#FFAE92"></path>
            <path d="M175.1389,122.3145 C175.1389,122.3145 166.7889,131.5435 168.7969,141.9925 C164.6979,132.4485 168.4949,127.3055 162.9389,125.2415 C170.1039,124.6125 175.1389,122.3145 175.1389,122.3145" id="Fill-23" fill="#6B0003"></path>
            <path d="M212.4504,134.4128 C212.4504,137.8178 215.2104,140.5778 218.6154,140.5778 C222.0204,140.5778 224.7804,137.8178 224.7804,134.4128 C224.7804,131.0078 222.0204,128.2478 218.6154,128.2478 C215.2104,128.2478 212.4504,131.0078 212.4504,134.4128" id="Fill-25" fill="#FFAE92"></path>
            <path d="M211.5637,122.3145 C211.5637,122.3145 219.9147,131.5435 217.9057,141.9925 C222.0057,132.4485 218.2077,127.3055 223.7637,125.2415 C216.5987,124.6125 211.5637,122.3145 211.5637,122.3145" id="Fill-27" fill="#6B0003"></path>
            <path d="M249.5939,379.2395 L137.3099,379.2395 C137.3099,379.2395 134.2439,388.8415 129.7699,403.8565 C117.4519,445.1975 101.6669,504.1225 98.6948638,542.7535 C98.6489,566.5335 142.4959,724.0095 142.4959,724.0095 L218.7819,700.6255 C218.7819,700.6255 179.7219,587.6715 176.2819,546.1765 C176.9699,518.3135 194.4229,462.3325 194.4229,462.3325 C194.4229,462.3325 237.0799,565.2125 273.7399,579.0845 C297.2999,586.1305 411.9439,498.3015 411.9439,498.3015 L370.4519,442.6995 C370.4519,442.6995 306.3179,492.1255 297.2529,487.9285 C282.6569,475.3775 260.1959,403.6185 260.1959,403.6185 L249.5939,379.2395 Z" id="Fill-29" fill="#A53739"></path>
            <path d="M242.6379,287.7483 C240.2779,308.3983 249.6079,344.1283 263.1779,379.0983 C242.8179,385.6083 219.4579,387.6883 194.4179,387.2983 C169.3879,387.6883 146.0279,385.6083 125.6579,379.0983 C139.2379,344.1283 148.5679,308.3983 146.1979,287.7483 C138.9079,283.1383 136.2479,274.5183 135.9279,263.8683 C105.1579,246.6883 77.2869,219.7283 55.5179,195.8283 L92.6379,156.3783 L136.4679,190.3783 L165.3879,185.7983 L169.3479,185.1783 C170.4979,192.4183 181.2779,198.0783 194.4179,198.0783 C207.5579,198.0783 218.3479,192.4183 219.4979,185.1783 L223.4479,185.7983 L252.3779,190.3783 L296.2079,156.3783 L333.3269,195.8283 C311.5479,219.7283 283.6879,246.6883 252.9179,263.8683 C252.5979,274.5183 249.9379,283.1383 242.6379,287.7483" id="Fill-31" fill="#F17E55"></path>
            <path d="M139.5891,243.2761 C139.5891,243.2761 127.7131,270.6371 145.4311,287.8921" id="Stroke-33" stroke="#A03717" stroke-linecap="round" stroke-linejoin="round"></path>
            <path d="M248.6096,243.2761 C248.6096,243.2761 260.4846,270.6371 242.7666,287.8921" id="Stroke-35" stroke="#A03717" stroke-linecap="round" stroke-linejoin="round"></path>
            <path d="M223.4475,185.7981 C222.0975,195.0581 209.8275,202.0881 194.4185,202.0881 C179.0085,202.0881 166.7375,195.0581 165.3875,185.7981 L169.3475,185.1781 C170.4985,192.4181 181.2775,198.0781 194.4185,198.0781 C207.5575,198.0781 218.3475,192.4181 219.4985,185.1781 L223.4475,185.7981 Z" id="Fill-37" fill="#FFFFFF"></path>
            <path d="M90.9445,157.9763 L56.6895,194.3843 C56.6895,194.3843 34.9635,160.3573 29.8315,147.9723 C20.2765,124.9173 4.0585,51.5323 4.0585,51.5323 L21.7635,42.1333 L63.4665,129.3073 C63.7625,129.9253 64.1585,130.4913 64.6365,130.9823 L90.9445,157.9763 Z" id="Fill-39" fill="#FFAE92"></path>
            <g transform="translate(0.000000, 0.771000)">
                <mask id="mask-2" fill="white">
                    <use xlink:href="#path-1"></use>
                </mask>
                <g id="Clip-42"></g>
                <path d="M0.0002,27.8032 C0.0002,27.8032 0.0862,45.9332 5.8522,53.8042 C10.5642,60.2372 15.7862,52.7432 15.7862,52.7432 C15.7862,52.7432 23.6442,39.5902 26.0362,30.8992 C27.6032,25.2032 32.1982,14.8212 29.4992,13.2352 C25.9782,11.1672 23.0132,22.5492 20.0692,22.9492 C14.1062,23.7572 16.8872,5.3582 15.7362,2.1342 C13.4882,-4.1698 1.3732,5.3652 0.0002,27.8032" id="Fill-41" fill="#FFAE92" mask="url(#mask-2)"></path>
            </g>
            <path d="M11.9553,2.7815 C12.0633,2.4475 12.4233,2.2635 12.7583,2.3725 C13.0923,2.4815 13.2743,2.8405 13.1663,3.1745 C12.9423,3.8635 12.7453,4.5725 12.5723,5.3005 C11.5393,9.6625 11.4543,14.3235 11.9323,18.6275 L12.0043,19.2385 C12.0283,19.4325 12.0543,19.6165 12.0793,19.7915 L12.1743,20.4035 C12.1843,20.4635 12.1923,20.5105 12.1983,20.5445 C12.2643,20.8895 12.0363,21.2225 11.6903,21.2875 C11.3453,21.3525 11.0123,21.1255 10.9473,20.7795 L10.8573,20.2395 L10.7793,19.6935 C10.7413,19.4065 10.7023,19.0975 10.6663,18.7685 C10.1743,14.3315 10.2613,9.5325 11.3343,5.0065 C11.5143,4.2455 11.7213,3.5035 11.9553,2.7815" id="Fill-43" fill="#F17E55"></path>
            <path d="M7.7326,4.6914 C7.8566,4.3624 8.2226,4.1954 8.5516,4.3184 C8.8816,4.4424 9.0476,4.8084 8.9246,5.1384 L8.7966,5.5154 C8.7696,5.6014 8.7396,5.6984 8.7066,5.8074 L8.6556,5.9794 C8.4476,6.6904 8.2376,7.5274 8.0426,8.4834 C7.2176,12.5154 6.8906,17.2644 7.3516,22.5984 C7.3816,22.9494 7.1226,23.2574 6.7716,23.2874 C6.4206,23.3174 6.1126,23.0584 6.0836,22.7084 C5.6116,17.2464 5.9466,12.3754 6.7956,8.2284 C6.9976,7.2364 7.2146,6.3654 7.4336,5.6214 L7.5866,5.1184 C7.6476,4.9294 7.6976,4.7864 7.7326,4.6914" id="Fill-45" fill="#F17E55"></path>
            <path d="M3.7522,11.9187 C4.0992,11.9777 4.3322,12.3057 4.2732,12.6527 C3.3922,17.8607 3.2202,21.9717 3.4502,24.9137 L3.5022,25.4717 C3.5142,25.5777 3.5242,25.6577 3.5322,25.7127 C3.5862,26.0597 3.3482,26.3847 3.0002,26.4387 C2.6522,26.4917 2.3272,26.2537 2.2742,25.9057 L2.2382,25.6257 C2.2202,25.4667 2.2002,25.2627 2.1812,25.0127 C1.9422,21.9677 2.1182,17.7517 3.0182,12.4397 C3.0702,12.1277 3.3422,11.9077 3.6482,11.9096865 L3.7522,11.9187 Z" id="Fill-47" fill="#F17E55"></path>
            <path d="M297.2531,157.9763 L331.5091,194.3843 C331.5091,194.3843 353.2341,160.3573 358.3661,147.9723 C367.9211,124.9173 384.1391,51.5323 384.1391,51.5323 L366.4341,42.1333 L324.7311,129.3073 C324.4351,129.9253 324.0391,130.4913 323.5611,130.9823 L297.2531,157.9763 Z" id="Fill-49" fill="#FFAE92"></path>
            <g transform="translate(357.000000, 0.771000)">
                <mask id="mask-4" fill="white">
                    <use xlink:href="#path-3"></use>
                </mask>
                <g id="Clip-52"></g>
                <path d="M31.1975,27.8032 C31.1975,27.8032 31.1115,45.9332 25.3455,53.8042 C20.6335,60.2372 15.4115,52.7432 15.4115,52.7432 C15.4115,52.7432 7.5535,39.5902 5.1625,30.8992 C3.5945,25.2032 -0.9995,14.8212 1.6995,13.2352 C5.2195,11.1672 8.1845,22.5492 11.1295,22.9492 C17.0925,23.7572 14.3105,5.3582 15.4625,2.1342 C17.7095,-4.1698 29.8255,5.3652 31.1975,27.8032" id="Fill-51" fill="#FFAE92" mask="url(#mask-4)"></path>
            </g>
            <path d="M376.2424,2.7815 C376.1344,2.4475 375.7744,2.2635 375.4404,2.3725 C375.1054,2.4815 374.9234,2.8405 375.0314,3.1745 C375.2554,3.8635 375.4534,4.5725 375.6254,5.3005 C376.6594,9.6625 376.7434,14.3235 376.2654,18.6275 L376.1934,19.2385 C376.1694,19.4325 376.1434,19.6165 376.1194,19.7915 L376.0234,20.4035 C376.0134,20.4635 376.0054,20.5105 375.9994,20.5445 C375.9334,20.8895 376.1614,21.2225 376.5074,21.2875 C376.8524,21.3525 377.1854,21.1255 377.2504,20.7795 L377.3404,20.2395 L377.4184,19.6935 C377.4574,19.4065 377.4954,19.0975 377.5314,18.7685 C378.0234,14.3315 377.9364,9.5325 376.8644,5.0065 C376.6834,4.2455 376.4764,3.5035 376.2424,2.7815" id="Fill-53" fill="#F17E55"></path>
            <path d="M380.4651,4.6914 C380.3421,4.3624 379.9751,4.1954 379.6461,4.3184 C379.3171,4.4424 379.1501,4.8084 379.2731,5.1384 L379.4011,5.5154 C379.4281,5.6014 379.4581,5.6984 379.4911,5.8074 L379.5421,5.9794 C379.7511,6.6904 379.9601,7.5274 380.1551,8.4834 C380.9811,12.5154 381.3081,17.2644 380.8471,22.5984 C380.8171,22.9494 381.0751,23.2574 381.4261,23.2874 C381.7771,23.3174 382.0851,23.0584 382.1151,22.7084 C382.5871,17.2464 382.2511,12.3754 381.4031,8.2284 C381.2001,7.2364 380.9831,6.3654 380.7651,5.6214 L380.6111,5.1184 C380.5501,4.9294 380.5001,4.7864 380.4651,4.6914" id="Fill-55" fill="#F17E55"></path>
            <path d="M384.4465,11.9187 C384.0995,11.9777 383.8655,12.3057 383.9255,12.6527 C384.8055,17.8607 384.9775,21.9717 384.7475,24.9137 L384.6955,25.4717 C384.6835,25.5777 384.6745,25.6577 384.6655,25.7127 C384.6115,26.0597 384.8495,26.3847 385.1975,26.4387 C385.5455,26.4917 385.8705,26.2537 385.9245,25.9057 L385.9605,25.6257 C385.9775,25.4667 385.9975,25.2627 386.0165,25.0127 C386.2555,21.9677 386.0795,17.7517 385.1795,12.4397 C385.1275,12.1277 384.8555,11.9077 384.5495,11.9096865 L384.4465,11.9187 Z" id="Fill-57" fill="#F17E55"></path>
        </g>
    </g>
</svg>